<?xml version="1.0" encoding="utf-8"?>
<!-- Generator: Adobe Illustrator 21.0.2, SVG Export Plug-In . SVG Version: 6.00 Build 0)  -->
<svg version="1.1" id="Layer_1" xmlns="http://www.w3.org/2000/svg" xmlns:xlink="http://www.w3.org/1999/xlink" x="0px" y="0px"
	 viewBox="0 0 28.4 28.4" style="enable-background:new 0 0 28.4 28.4;" xml:space="preserve">
<style type="text/css">
	.st0{fill-rule:evenodd;clip-rule:evenodd;fill:#A6A6A6;}
</style>
<path class="st0" d="M13.3,11.4H8.8l0.1-3.7h4.4L13.3,11.4L13.3,11.4z M18.6,5.5c-0.9-2.1-1.5-3.5-1.9-4h-2.6c1.2,2.2,2,4.6,2.3,7.2
	c0.2,1.3,0.2,3.1,0.1,5.5c0,3-0.7,6.1-2,9.2c-0.5,1.2-1.1,2.4-1.8,3.7h2.9c0.8-1.2,1.5-2.4,2-3.7c0.3-0.6,0.5-1.2,0.8-1.8
	c0.9-2.6,1.4-5,1.5-7.2C20.1,11,19.6,8.1,18.6,5.5L18.6,5.5z M8.4,18.1l-0.1,3.7h4.5l0.1-3.7H8.4L8.4,18.1z"/>
</svg>
