<?xml version="1.0" encoding="UTF-8" standalone="no"?>
<svg
   xmlns:dc="http://purl.org/dc/elements/1.1/"
   xmlns:cc="http://creativecommons.org/ns#"
   xmlns:rdf="http://www.w3.org/1999/02/22-rdf-syntax-ns#"
   xmlns:svg="http://www.w3.org/2000/svg"
   xmlns="http://www.w3.org/2000/svg"
   xmlns:sodipodi="http://sodipodi.sourceforge.net/DTD/sodipodi-0.dtd"
   xmlns:inkscape="http://www.inkscape.org/namespaces/inkscape"
   id="Слой_1"
   data-name="Слой 1"
   viewBox="0 0 134.02144 72.214256"
   version="1.1"
   sodipodi:docname="1java.svg"
   width="134.02144"
   height="72.214256"
   inkscape:version="0.92.2 (unknown)">
  <metadata
     id="metadata35">
    <rdf:RDF>
      <cc:Work
         rdf:about="">
        <dc:format>image/svg+xml</dc:format>
        <dc:type
           rdf:resource="http://purl.org/dc/dcmitype/StillImage" />
        <dc:title>1java</dc:title>
      </cc:Work>
    </rdf:RDF>
  </metadata>
  <sodipodi:namedview
     pagecolor="#ffffff"
     bordercolor="#666666"
     borderopacity="1"
     objecttolerance="10"
     gridtolerance="10"
     guidetolerance="10"
     inkscape:pageopacity="0"
     inkscape:pageshadow="2"
     inkscape:window-width="640"
     inkscape:window-height="480"
     id="namedview33"
     showgrid="false"
     fit-margin-top="0"
     fit-margin-left="0"
     fit-margin-right="0"
     fit-margin-bottom="0"
     inkscape:zoom="1.0851852"
     inkscape:cx="66.995652"
     inkscape:cy="32.12426"
     inkscape:window-x="49"
     inkscape:window-y="24"
     inkscape:window-maximized="0"
     inkscape:current-layer="Слой_1" />
  <defs
     id="defs4">
    <style
       id="style2">.cls-1{fill:#ec2024;}.cls-1,.cls-2{fill-rule:evenodd;}.cls-2{fill:#008ac7;}</style>
  </defs>
  <title
     id="title6">1java</title>
  <path
     class="cls-1"
     d="m 87.415652,53.19 c 0,0.5 -1.19,1.16 -1.58,1.41 -1.77,1.12 -4.31,1.86 -6,0.2 a 3.83,3.83 0 0 1 0.58,-5.66 7.4,7.4 0 0 1 3.18,-0.87 26.55,26.55 0 0 1 3.8,-0.18 v 5.07 z m -12,-15.47 0.69,2.73 c 1.17,-0.28 1.87,-0.7 3.63,-1 a 13.76,13.76 0 0 1 4.32,-0.23 3.14,3.14 0 0 1 2.81,1.84 6,6 0 0 1 0.47,1.89 v 2.21 c -0.1,0.05 -4.42,0.32 -5,0.4 -4.31,0.55 -8.65,2.9 -8,8.31 0.42,3.37 2.23,4.9 5.64,5.32 a 8.16,8.16 0 0 0 4.64,-0.64 12.37,12.37 0 0 0 1.81,-0.94 16.69,16.69 0 0 0 1.53,-1.2 l 0.46,2.32 h 3.5 c 0.06,-0.71 0,-9.37 0,-10.33 v -5.24 a 7.45,7.45 0 0 0 -0.91,-4.23 c -2.37,-3.77 -7.52,-3.59 -11.78,-2.57 a 13.93,13.93 0 0 0 -3.79,1.36 z"
     id="path8"
     inkscape:connector-curvature="0"
     style="fill:#ec2024;fill-rule:evenodd" />
  <path
     class="cls-1"
     d="m 129.45565,53.48 c -0.3,0.17 -0.62,0.48 -1,0.73 a 7.88,7.88 0 0 1 -3.46,1.52 c -3.85,0.48 -4.76,-3.5 -3.52,-5.55 1.24,-2.05 5.52,-2.09 8,-2.09 v 5.37 z m -11.94,-15.76 a 15.31,15.31 0 0 0 0.72,2.72 c 0.65,-0.13 2.08,-0.73 3.64,-1 2.27,-0.45 6,-0.83 7.09,1.62 0.45,1 0.77,3.76 0.45,4.08 a 16.18,16.18 0 0 1 -2.52,0.19 15.57,15.57 0 0 0 -6.74,1.49 6.5,6.5 0 0 0 -3.74,7.06 c 0.43,3.39 2.25,4.88 5.64,5.3 a 9.28,9.28 0 0 0 6.45,-1.59 14.87,14.87 0 0 0 1.49,-1.25 l 0.44,2.33 h 3.56 V 43.16 a 7.45,7.45 0 0 0 -0.93,-4.27 c -2.29,-3.75 -7.58,-3.5 -11.74,-2.53 a 13.65,13.65 0 0 0 -3.8,1.37 z"
     id="path10"
     inkscape:connector-curvature="0"
     style="fill:#ec2024;fill-rule:evenodd" />
  <path
     class="cls-1"
     d="m 101.68565,58.72 h 5.61 c 0.19,0 0.58,-0.95 0.69,-1.17 0.21,-0.44 0.38,-0.83 0.58,-1.26 0.38,-0.82 0.73,-1.74 1.05,-2.61 a 104.57,104.57 0 0 0 3.38,-11.37 c 0.23,-0.93 1.31,-5.43 1.31,-6.07 h -4.19 c -0.92,0 -0.54,-0.13 -0.79,1.74 a 48.73,48.73 0 0 1 -1.13,5.7 c -0.34,1.33 -2.72,9.8 -3.19,10.35 l -1.2,-4.54 c -0.45,-1.51 -0.86,-3 -1.33,-4.44 l -2.07,-6.58 c -0.24,-0.74 -0.459998,-1.53 -0.729998,-2.21 h -5 c 0,0.44 3.26,10.55 3.47,11.26 0.59,1.92 1.17,3.69 1.75,5.58 0.579998,1.89 1.229998,3.79 1.749998,5.64 z"
     id="path12"
     inkscape:connector-curvature="0"
     style="fill:#ec2024;fill-rule:evenodd" />
  <path
     class="cls-1"
     d="m 66.055652,35.76 v 19.46 c 0,3.62 -1.18,7.74 -4.81,8.93 0.21,0.44 1.78,2 2.19,2.67 a 9.41,9.41 0 0 0 3.72,-2 10.06,10.06 0 0 0 2.45,-3.32 c 1.54,-3.13 1.29,-6.45 1.29,-10.21 0,-7.68 0,-15.37 0,-23.05 -0.57,-0.1 -3.89,0 -4.84,0 v 7.55 z"
     id="path14"
     inkscape:connector-curvature="0"
     style="fill:#ec2024;fill-rule:evenodd" />
  <path
     class="cls-1"
     d="m 26.425652,39.09 -1.53,-2.19 c -0.5,-0.73 -1,-1.54 -1.46,-2.34 a 21.73,21.73 0 0 1 -2.35,-5.25 c -0.86,-3.43 1.26,-5.56 3.13,-7.81 0.28,-0.34 0.61,-0.66 0.92,-1 2,-2.06 4.64,-4.53 6.73,-6.57 a 11.28,11.28 0 0 0 3.65,-7.74 c 0.13,-1.76 -0.21,-5.51 -1.45,-6.19 a 12,12 0 0 1 -0.61,7.07 c -1.24,3.07 -3.25,4.91 -5.58,6.73 -1.91,1.49 -5,4.16 -6.67,5.71 a 15.9,15.9 0 0 0 -3.6,4.58 c -1.1,2.61 0,4.31 1.17,6.14 0.56,0.87 1.13,1.61 1.74,2.39 0.61,0.78 1.32,1.53 1.88,2.25 0.56,0.72 1.32,1.44 2,2.16 a 25.34,25.34 0 0 0 2.03,2.06 z"
     id="path16"
     inkscape:connector-curvature="0"
     style="fill:#ec2024;fill-rule:evenodd" />
  <path
     class="cls-2"
     d="m 49.045652,61.72 c 0.75,1.21 0,1.72 -1,2.19 -4.54,2.13 -19.89,2.52 -24.69,2.59 a 78,78 0 0 1 -14.5299995,-1 c -0.77,-0.13 -4.13,-0.67 -4.29,-1.56 -0.1,-0.56 0.49,-1 0.8,-1.17 a 14.79,14.79 0 0 1 4.44,-1.39 13.8,13.8 0 0 0 1.6499995,-0.29 c -2.2899995,-0.34 -9.5299995,0.89 -11.1199995,3.14 -1,1.42 0.68,2.08 1.79,2.44 4.18,1.36 12.8699995,1.64 17.4599995,1.71 6.85,0.09 23.35,0 29.39,-4.13 0.35,-0.24 1,-0.75 1.12,-1.24 0.12,-0.49 -0.64,-1.19 -1,-1.34 z"
     id="path18"
     inkscape:connector-curvature="0"
     style="fill:#008ac7;fill-rule:evenodd" />
  <path
     class="cls-1"
     d="m 29.265652,41.91 a 17.28,17.28 0 0 0 3.46,-2.6 6.86,6.86 0 0 0 2.16,-3.93 8.74,8.74 0 0 0 -1.6,-4.5 c -2,-3.09 -3.67,-4.86 -0.91,-8.29 a 21,21 0 0 1 3.09,-3 58.36,58.36 0 0 1 5.34,-3.77 l 1.87,-1.2 a 35.41,35.41 0 0 0 -4.68,1.55 31,31 0 0 0 -4.21,2 c -4.17,2.41 -8.27,6.18 -6.59,11.39 1.13,3.53 4.44,5.64 4.2,8.28 -0.14,1.62 -1.7,3.24 -2.17,4 z"
     id="path20"
     inkscape:connector-curvature="0"
     style="fill:#ec2024;fill-rule:evenodd" />
  <path
     class="cls-2"
     d="m 37.995652,59.15 a 20.59,20.59 0 0 1 -3.39,-1.73 c -0.66,-0.4 -0.41,-0.36 -1.26,-0.15 -3.47,0.85 -9.09,0.87 -12.73,0.75 -0.94,0 -3.57,-0.11 -4.1,-1 -0.34,-0.56 0.12,-1 0.3,-1.28 -2.38,0.48 -4.81,2.46 -1.5,4.11 3.73,1.85 11.58,1.87 15.66,1.15 1.16,-0.21 6.45,-1.41 7,-1.86 z"
     id="path22"
     inkscape:connector-curvature="0"
     style="fill:#008ac7;fill-rule:evenodd" />
  <path
     class="cls-2"
     d="m 39.075652,51.36 a 6.29,6.29 0 0 1 -2.48,-1.39 c -0.53,-0.45 -0.35,-0.34 -1.48,-0.15 -4.08,0.68 -16.23,1.87 -19.71,0.43 -0.45,-0.19 -1,-0.47 -1,-1 0,-0.53 0.5,-1 0.72,-1.31 -2.8,0.35 -5.4799995,3 -1.74,4.33 4.22,1.45 13.33,1.5 17.82,0.93 1.48,-0.19 6.73,-1.21 7.86,-1.84 z"
     id="path24"
     inkscape:connector-curvature="0"
     style="fill:#008ac7;fill-rule:evenodd" />
  <path
     class="cls-2"
     d="m 41.885652,42.2 a 17.5,17.5 0 0 0 -1.78,0.27 l -1.84,0.27 c -3.74,0.52 -7.88,0.95 -11.63,1.17 -2.92,0.17 -13.94,0.54 -15.59,-1 -0.12,-0.69 0.67,-1.12 1.15,-1.39 a 30.9,30.9 0 0 1 5.8,-1.94 c -2.57,-0.24 -8.9999995,1.61 -11.3799995,3.07 -2.53,1.58 1.69,2.2 3.26,2.42 9.2299995,1.29 17.8599995,0.6 26.9999995,-0.7 1.49,-0.21 1.81,-0.13 2.82,-0.77 0.7,-0.45 1.62,-0.91 2.24,-1.41 z"
     id="path26"
     inkscape:connector-curvature="0"
     style="fill:#008ac7;fill-rule:evenodd" />
  <path
     class="cls-2"
     d="m 9.9956525,69.98 c 2.5799995,1.08 8.1899995,1.74 11.0999995,2 a 85.91,85.91 0 0 0 12.68,0 c 5.3,-0.38 11.58,-1 16.24,-3.35 1.11,-0.57 3.11,-1.92 3.3,-3.21 a 7.34,7.34 0 0 0 -0.93,0.66 c -8.22,5.66 -27,5.12 -36.71,4.43 z"
     id="path28"
     inkscape:connector-curvature="0"
     style="fill:#008ac7;fill-rule:evenodd" />
  <path
     class="cls-2"
     d="m 43.745652,39.99 a 6.06,6.06 0 0 1 5.58,0.92 c 1.38,1.23 1.4,3.56 0.4,5.37 -1.33,2.41 -4.12,4.56 -6.44,6 -0.4,0.25 -0.78,0.44 -1.12,0.69 a 23.39,23.39 0 0 0 6.37,-2.59 10.55,10.55 0 0 0 4.46,-4.6 4.78,4.78 0 0 0 -2.26,-6 6.55,6.55 0 0 0 -3.63,-0.88 c -1.08,0 -2.84,0.47 -3.32,1.14 z"
     id="path30"
     inkscape:connector-curvature="0"
     style="fill:#008ac7;fill-rule:evenodd" />
</svg>
