<?xml version="1.0" encoding="utf-8"?>
<!-- Generator: Adobe Illustrator 21.0.0, SVG Export Plug-In . SVG Version: 6.00 Build 0)  -->
<svg version="1.1" id="Layer_1" xmlns="http://www.w3.org/2000/svg" xmlns:xlink="http://www.w3.org/1999/xlink" x="0px" y="0px"
	 viewBox="0 0 269.3 70.9" style="enable-background:new 0 0 269.3 70.9;" xml:space="preserve">
<style type="text/css">
	.st0{fill:url(#SVGID_1_);}
	.st1{fill:url(#SVGID_2_);}
	.st2{fill:url(#SVGID_3_);}
	.st3{fill:#00599A;}
	.st4{fill:#006CB7;}
	.st5{fill:#0078B1;}
	.st6{fill:#005E9E;}
	.st7{fill:#0083C5;}
	.st8{fill:#007DC5;}
	.st9{fill:#00A1E4;}
	.st10{fill:#009CE0;}
	.st11{fill:#0061AF;}
	.st12{fill:#0064B1;}
	.st13{fill:#0063A9;}
	.st14{fill:#00B9F2;}
	.st15{fill:url(#SVGID_4_);}
	.st16{fill:url(#SVGID_5_);}
	.st17{fill:url(#SVGID_6_);}
	.st18{fill:url(#SVGID_7_);}
	.st19{fill:url(#SVGID_8_);}
	.st20{fill:url(#SVGID_9_);}
	.st21{fill:url(#SVGID_10_);}
	.st22{fill:#38C0EB;}
	.st23{fill:#68C5EA;}
	.st24{fill:#69C6EB;}
	.st25{fill:#37BEEA;}
	.st26{fill:url(#SVGID_11_);}
	.st27{fill:url(#SVGID_12_);}
	.st28{fill:url(#SVGID_13_);}
	.st29{fill:url(#SVGID_14_);}
	.st30{fill:url(#SVGID_15_);}
	.st31{fill:#E7F6FD;}
</style>
<path d="M263.4,9.3h0.3c0.2,0,0.5,0.2,0.7,0.7l0.4,0.9h0.6l-0.5-1c-0.2-0.4-0.4-0.7-0.6-0.7v0c0.3-0.1,0.5-0.2,0.7-0.4
	c0.2-0.2,0.3-0.4,0.3-0.7c0-0.3-0.1-0.5-0.3-0.7c-0.2-0.2-0.6-0.3-1.1-0.3h-1.1v3.8h0.5V9.3z M263.4,7.5h0.5c0.3,0,0.6,0.1,0.7,0.2
	c0.1,0.1,0.2,0.3,0.2,0.5c0,0.4-0.3,0.7-0.8,0.7h-0.6V7.5z M264,12c0.9,0,1.6-0.3,2.1-0.9c0.6-0.6,0.9-1.3,0.9-2.1
	c0-0.9-0.3-1.6-0.9-2.1c-0.6-0.5-1.3-0.8-2.1-0.8c-0.9,0-1.6,0.3-2.1,0.9C261.3,7.5,261,8.2,261,9c0,0.9,0.3,1.6,0.8,2.1
	C262.4,11.7,263.1,12,264,12z M262.1,7.1c0.5-0.5,1.1-0.8,1.9-0.8c0.7,0,1.4,0.3,1.9,0.8c0.5,0.5,0.8,1.1,0.8,1.9
	c0,0.8-0.3,1.4-0.8,1.9c-0.5,0.5-1.1,0.8-1.9,0.8c-0.7,0-1.4-0.3-1.9-0.8c-0.5-0.5-0.8-1.1-0.8-1.9C261.4,8.3,261.6,7.7,262.1,7.1z
	 M171.2,9.1c0-1.4,0-2.4-0.1-3.1h0c0.2,0.7,0.3,1.3,0.5,1.6l5.4,12h0.9l5.4-12.1c0.1-0.3,0.3-0.8,0.5-1.5h0
	c-0.1,1.2-0.2,2.2-0.2,3.1v10.6h1.8V3.9h-2.3l-4.9,10.9c-0.2,0.4-0.4,1.1-0.8,1.9h-0.1c-0.1-0.4-0.4-1.1-0.7-1.9l-4.8-11h-2.4v15.7
	h1.8V9.1z M190.3,5.5c0.3,0,0.6-0.1,0.8-0.3c0.2-0.2,0.3-0.5,0.3-0.8c0-0.3-0.1-0.6-0.3-0.8c-0.2-0.2-0.5-0.3-0.8-0.3
	c-0.3,0-0.6,0.1-0.8,0.3c-0.2,0.2-0.3,0.5-0.3,0.8c0,0.3,0.1,0.6,0.3,0.8C189.7,5.4,190,5.5,190.3,5.5z M189.4,19.6h1.8V8.4h-1.8
	V19.6z M199.4,19.9c1.2,0,2.2-0.3,3.1-0.8v-1.7c-0.9,0.6-1.8,1-2.8,1c-1.2,0-2.1-0.4-2.8-1.1c-0.7-0.8-1-1.8-1-3.1
	c0-1.4,0.4-2.5,1.1-3.3c0.7-0.8,1.7-1.2,2.8-1.2c1,0,1.8,0.3,2.7,0.9V8.7c-0.8-0.4-1.6-0.6-2.6-0.6c-1.8,0-3.2,0.6-4.3,1.7
	c-1.1,1.1-1.6,2.6-1.6,4.5c0,1.6,0.5,3,1.4,4C196.4,19.4,197.7,19.9,199.4,19.9z M208.2,8.8c-0.5,0.4-1,1.1-1.2,1.9h0V8.4h-1.8v11.2
	h1.8v-5.7c0-1.3,0.3-2.3,0.8-3.1c0.5-0.7,1.1-1,1.8-1c0.6,0,1.1,0.1,1.4,0.4V8.4c-0.2-0.1-0.6-0.2-1.1-0.2
	C209.3,8.2,208.7,8.4,208.2,8.8z M217.3,19.9c1.7,0,3.1-0.5,4.1-1.6c1-1.1,1.5-2.5,1.5-4.3c0-1.8-0.5-3.3-1.4-4.3
	c-0.9-1-2.3-1.6-3.9-1.6c-1.7,0-3.1,0.5-4.1,1.5c-1.1,1.1-1.6,2.6-1.6,4.5c0,1.7,0.5,3.1,1.4,4.1C214.3,19.4,215.6,19.9,217.3,19.9z
	 M214.7,10.8c0.7-0.7,1.6-1.1,2.7-1.1c1.1,0,2,0.4,2.6,1.1c0.6,0.8,1,1.9,1,3.3c0,1.4-0.3,2.4-0.9,3.2c-0.6,0.8-1.5,1.2-2.7,1.2
	c-1.1,0-2.1-0.4-2.7-1.1c-0.7-0.8-1-1.8-1-3.2C213.7,12.6,214,11.5,214.7,10.8z M230.8,18.9c0.7-0.6,1-1.4,1-2.3
	c0-0.8-0.3-1.5-0.8-2.1c-0.4-0.4-1.1-0.8-2.1-1.2c-0.9-0.4-1.4-0.7-1.7-0.9c-0.3-0.3-0.5-0.7-0.5-1.2c0-0.5,0.2-0.8,0.5-1.1
	c0.4-0.3,0.8-0.4,1.4-0.4c1,0,1.8,0.3,2.6,0.8V8.6c-0.7-0.4-1.5-0.5-2.4-0.5c-1.2,0-2.1,0.3-2.9,0.9c-0.7,0.6-1.1,1.4-1.1,2.3
	c0,0.8,0.2,1.5,0.7,2c0.4,0.4,1.1,0.9,2,1.3c0.9,0.4,1.5,0.7,1.8,1c0.3,0.3,0.5,0.6,0.5,1.1c0,1-0.7,1.6-2.1,1.6
	c-1.1,0-2-0.4-2.9-1.1v1.9c0.8,0.5,1.7,0.7,2.8,0.7C229,19.9,230,19.6,230.8,18.9z M243.2,18.3c1-1.1,1.5-2.5,1.5-4.3
	c0-1.8-0.5-3.3-1.4-4.3c-0.9-1-2.3-1.6-3.9-1.6c-1.7,0-3.1,0.5-4.1,1.5c-1.1,1.1-1.6,2.6-1.6,4.5c0,1.7,0.5,3.1,1.4,4.1
	c1,1.1,2.3,1.6,4,1.6C240.8,19.9,242.2,19.4,243.2,18.3z M235.5,14.1c0-1.4,0.4-2.5,1.1-3.3c0.7-0.7,1.6-1.1,2.7-1.1
	c1.1,0,2,0.4,2.6,1.1c0.7,0.8,1,1.9,1,3.3c0,1.4-0.3,2.4-0.9,3.2c-0.6,0.8-1.5,1.2-2.7,1.2c-1.1,0-2.1-0.4-2.7-1.1
	C235.8,16.5,235.5,15.4,235.5,14.1z M247.7,19.6h1.8V9.9h2.6V8.4h-2.6V6.7c0-1.6,0.6-2.4,1.9-2.4c0.4,0,0.8,0.1,1.2,0.3V2.9
	c-0.3-0.1-0.7-0.2-1.3-0.2c-1,0-1.8,0.3-2.4,0.9c-0.8,0.7-1.1,1.7-1.1,2.9v1.8h-1.9v1.5h1.9V19.6z M255.1,16.6c0,2.2,1,3.3,2.9,3.3
	c0.7,0,1.3-0.1,1.7-0.4V18c-0.3,0.2-0.7,0.4-1.2,0.4c-0.6,0-1-0.2-1.3-0.5c-0.3-0.3-0.4-0.9-0.4-1.6V9.9h2.8V8.4h-2.8V5.1
	c-0.6,0.2-1.2,0.4-1.8,0.6v2.7h-1.9v1.5h1.9V16.6z M197.9,53.9c0,2.9,0.1,4.9,0.3,6.1h-0.1c-0.3-0.6-0.8-1.5-1.7-2.8l-20.7-32.4
	h-6.3v41.3h4.8V36.3c0-2.9-0.1-4.8-0.2-5.7h0.2c0.4,0.9,0.8,1.8,1.3,2.6l21.3,32.9h5.9V24.8h-4.8V53.9z M216.7,47.3h14.9v-4.4h-14.9
	V29.2h16.1v-4.4h-20.9v41.3h21.9v-4.4h-17V47.3z M238.3,29.2h11.9v36.9h4.8V29.2h11.9v-4.4h-28.6V29.2z M159.2,60.3
	c-0.9,0-1.6,0.3-2.2,1c-0.6,0.6-0.9,1.4-0.9,2.3c0,0.9,0.3,1.6,0.9,2.3c0.6,0.6,1.4,1,2.2,1c0.9,0,1.7-0.3,2.3-1
	c0.6-0.6,1-1.4,1-2.3c0-0.9-0.3-1.6-1-2.3C160.8,60.6,160.1,60.3,159.2,60.3z M130,62.5h1.2v3.6h0.5v-3.6h1.2V62H130V62.5z
	 M135.7,64.8c0,0.1-0.1,0.3-0.2,0.5h0c0-0.1-0.1-0.3-0.2-0.5L134,62h-0.6v4h0.4v-2.7c0-0.4,0-0.6,0-0.8h0c0,0.2,0.1,0.3,0.1,0.4
	l1.4,3.1h0.2l1.4-3.1c0-0.1,0.1-0.2,0.1-0.4h0c0,0.3,0,0.6,0,0.8v2.7h0.5v-4h-0.6L135.7,64.8z"/>
<g>
	<linearGradient id="SVGID_1_" gradientUnits="userSpaceOnUse" x1="130.1537" y1="66.1255" x2="130.1537" y2="4.3345">
		<stop  offset="6.785882e-02" style="stop-color:#005897"/>
		<stop  offset="1" style="stop-color:#038DCD"/>
	</linearGradient>
	<path class="st0" d="M140.6,4.3c-0.2,0-0.4,0-0.7,0c-0.2,0-0.4,0-0.6,0h0c-0.4,0-0.9,0-1.3,0.1c-0.2,0.4-0.4,0.8-0.6,1.3
		c-6.6,14.1-13.6,26.3-20.6,36c-3.3,10.2-5.8,16.4-8.7,20.1c1.3,2.2,2.8,3.7,4.5,4.4c0.1,0,0.1,0,0.1,0c0,0,0,0,0,0c0,0,0.1,0,0.1,0
		c0.1,0,0.2,0,0.2-0.1c0,0,0.1,0,0.1,0c0.1,0,0.1,0,0.2-0.1c0,0,0.1,0,0.1,0c0.1,0,0.2-0.1,0.3-0.1c0,0,0.1,0,0.1,0
		c0.1,0,0.1,0,0.2-0.1c0.1,0,0.1,0,0.2-0.1c0,0,0.1,0,0.1-0.1c0.1,0,0.2-0.1,0.3-0.1c0,0,0.1,0,0.1,0c0.1,0,0.1-0.1,0.2-0.1
		c0,0,0.1,0,0.1,0c0.2-0.1,0.5-0.2,0.7-0.3c0,0,0,0,0,0c0.4-0.2,0.7-0.3,1.1-0.5c11.5-6.4,17.3-28,35.3-60.1h-5H140.6z"/>
	<linearGradient id="SVGID_2_" gradientUnits="userSpaceOnUse" x1="90.899" y1="58.9087" x2="90.899" y2="5.7026">
		<stop  offset="0" style="stop-color:#0475BC"/>
		<stop  offset="6.814706e-02" style="stop-color:#0679BF"/>
		<stop  offset="0.1793" style="stop-color:#0A87C9"/>
		<stop  offset="0.3196" style="stop-color:#129FDA"/>
		<stop  offset="0.4822" style="stop-color:#20C4F4"/>
		<stop  offset="0.6009" style="stop-color:#62CDF6"/>
		<stop  offset="0.8577" style="stop-color:#BDE7FB"/>
		<stop  offset="1" style="stop-color:#ECF8FE"/>
	</linearGradient>
	<path class="st1" d="M80.3,5.7c-1.2,0-2.4,0.1-3.7,0.3C92.1,9.9,94,43.6,101,58.9c1.4-1.1,2.8-2.4,4.2-3.7
		C99.3,37.6,97.2,5.7,80.3,5.7z"/>
	<linearGradient id="SVGID_3_" gradientUnits="userSpaceOnUse" x1="2.2729" y1="36.8949" x2="47.6225" y2="36.8949">
		<stop  offset="0" style="stop-color:#ECF8FE"/>
		<stop  offset="0.9964" style="stop-color:#00A6E9"/>
	</linearGradient>
	<path class="st2" d="M2.3,68.1c0,0,0.7,0,1.8,0c2.9-5.2,5.5-10.1,7.9-14.7c6.4-25,19.4-42,30.9-46.5c0,0,0,0,0,0c0,0,0,0,0,0
		c0,0,0,0,0,0c0.1,0,0.1-0.1,0.2-0.1c0,0,0,0,0,0c0,0,0,0,0.1,0c0.1,0,0.2-0.1,0.2-0.1c0,0,0,0,0,0c0.2-0.1,0.3-0.1,0.5-0.2
		c0,0,0,0,0.1,0c0.1,0,0.1,0,0.2-0.1c0,0,0.1,0,0.1,0c0.1,0,0.1,0,0.2-0.1c0,0,0.1,0,0.1,0c0.2-0.1,0.5-0.1,0.7-0.2c0,0,0.1,0,0.1,0
		c0.1,0,0.1,0,0.2,0c0,0,0.1,0,0.1,0c0.1,0,0.1,0,0.2,0c0,0,0,0,0.1,0c0.1,0,0.3-0.1,0.4-0.1c0,0,0.1,0,0.1,0c0.1,0,0.1,0,0.2,0
		c0,0,0.1,0,0.1,0c0.1,0,0.1,0,0.2,0c0,0,0.1,0,0.1,0c0.2,0,0.3,0,0.5,0c-0.5,0-0.9-0.1-1.4-0.1C31.6,5.7,11.4,32.9,2.3,68.1z"/>
	<path class="st3" d="M73.6,5.7c-1.3,0-2.6,0.1-3.9,0.4c-3.4,0.6-6.9,2.1-10.4,4.3c1,0.9,1.9,2,2.7,3.2c3.6-3,7.1-5.1,10.6-6.4
		c1.3-0.5,2.6-0.9,4-1.1C75.6,5.8,74.6,5.7,73.6,5.7"/>
	<path class="st4" d="M100.7,62.6c-0.7-0.6-1.3-1.3-1.9-2.1c-2.9,2-5.7,3.6-8.5,4.6c1,0.5,2.1,0.9,3.2,1.1c0.9,0.2,1.8,0.3,2.7,0.3
		c3.2,0,5.7-0.4,7.8-1.4C102.8,64.4,101.7,63.6,100.7,62.6"/>
	<path class="st5" d="M57.6,11.6c-0.5,0.3-1,0.7-1.5,1.1c0.6,1.4,1.2,3,1.8,4.7c0.7-0.7,1.5-1.4,2.2-2.1
		C59.3,13.9,58.5,12.7,57.6,11.6"/>
	<path class="st6" d="M59.3,10.4c-0.6,0.4-1.2,0.8-1.7,1.2c0.9,1.1,1.7,2.4,2.5,3.7c0.6-0.6,1.3-1.1,1.9-1.7
		C61.2,12.4,60.3,11.3,59.3,10.4"/>
	<path class="st7" d="M51.1,16.9c1.7-1.6,3.3-3,5-4.3c-0.4-0.8-0.8-1.6-1.2-2.3C53.5,12,52.3,14.1,51.1,16.9"/>
	<path class="st7" d="M52.3,7.1c1,0.8,1.8,1.9,2.6,3.2c0.2-0.3,0.5-0.6,0.8-0.8c-1.1-1-2.3-1.9-3.5-2.5C52.2,7,52.2,7.1,52.3,7.1
		C52.3,7.1,52.3,7.1,52.3,7.1"/>
	<path class="st8" d="M55.6,9.5c-0.3,0.3-0.5,0.5-0.8,0.8c0.4,0.7,0.8,1.5,1.2,2.3c0.5-0.4,1-0.7,1.5-1.1
		C57,10.8,56.3,10.1,55.6,9.5"/>
	<path class="st9" d="M11.9,53.4C9.6,58,6.9,62.9,4,68.1c1.3,0,3.1,0,5.1,0C9.8,62.9,10.8,58,11.9,53.4"/>
	<path class="st10" d="M108,61.8c3-3.6,5.4-9.8,8.7-20.1c-3.8,5.3-7.7,9.8-11.5,13.5c0,0,0,0,0,0C106.1,57.7,107,60,108,61.8"/>
	<path class="st4" d="M108,61.8c-1,1.2-2.1,2.2-3.3,2.9c-0.3,0.2-0.5,0.3-0.8,0.4c1.3,0.7,2.6,1.1,4.2,1.3h0h0c0.2,0,0.4,0,0.7,0.1
		h0c0.1,0,0.2,0,0.3,0h0c0.1,0,0.2,0,0.3,0c0.1,0,0.2,0,0.4,0c0,0,0.1,0,0.1,0c0.1,0,0.2,0,0.3,0c0,0,0.1,0,0.1,0c0.1,0,0.2,0,0.2,0
		c0,0,0,0,0,0c0,0,0.1,0,0.1,0c0.1,0,0.2,0,0.3,0c0,0,0,0,0,0c0,0,0.1,0,0.1,0c0.1,0,0.2,0,0.3,0c0,0,0.1,0,0.1,0
		c0.1,0,0.2,0,0.3-0.1h0c0,0,0,0,0,0c0.2,0,0.4-0.1,0.6-0.1C110.8,65.5,109.3,63.9,108,61.8"/>
	<path class="st11" d="M82.7,66.5c1.3,0,2.6-0.1,3.9-0.4c1.2-0.2,2.4-0.6,3.6-1c1,0.5,2.1,0.9,3.2,1.1c0.9,0.2,1.8,0.3,2.7,0.3H82.7
		z"/>
	<path class="st11" d="M96.1,66.5c3.2,0,5.7-0.4,7.8-1.4c1.3,0.7,2.6,1.1,4.2,1.3h0h0c0.2,0,0.4,0,0.7,0.1h0c0.1,0,0.2,0,0.3,0h0
		c0.1,0,0.2,0,0.3,0H96.1z"/>
	<path class="st12" d="M109.6,66.5c0.1,0,0.2,0,0.4,0c0,0,0.1,0,0.1,0c0.1,0,0.2,0,0.3,0c0,0,0.1,0,0.1,0c0.1,0,0.2,0,0.2,0
		c0,0,0,0,0,0c0,0,0.1,0,0.1,0c0.1,0,0.2,0,0.3,0c0,0,0,0,0,0c0,0,0.1,0,0.1,0c0.1,0,0.2,0,0.3,0c0,0,0.1,0,0.1,0
		c0.1,0,0.2,0,0.3-0.1h0c0,0,0,0,0,0c0.2,0,0.4-0.1,0.6-0.1h0c0.6,0.2,1.3,0.3,2,0.3L109.6,66.5z"/>
	<path class="st13" d="M105.2,55.2C105.2,55.2,105.2,55.2,105.2,55.2c-1.4,1.3-2.8,2.6-4.2,3.7c-0.7,0.6-1.5,1.1-2.2,1.7
		c0.6,0.7,1.3,1.4,1.9,2.1c1,1,2.1,1.8,3.3,2.4c0.3-0.1,0.5-0.3,0.8-0.4c1.2-0.7,2.3-1.6,3.3-2.9C107,60,106.1,57.7,105.2,55.2"/>
	<path class="st14" d="M51.1,16.9c-1.7,3.8-3.4,8.7-5.4,15.2c4.1-5.8,8.2-10.7,12.2-14.8c-0.6-1.7-1.2-3.3-1.8-4.7
		C54.4,13.9,52.8,15.3,51.1,16.9z"/>
	<linearGradient id="SVGID_4_" gradientUnits="userSpaceOnUse" x1="121.6091" y1="4.4106" x2="121.6091" y2="55.183">
		<stop  offset="1.570352e-03" style="stop-color:#25A7DF"/>
		<stop  offset="0.1519" style="stop-color:#25ACE3"/>
		<stop  offset="0.3962" style="stop-color:#25BBEE"/>
		<stop  offset="0.4822" style="stop-color:#20C4F4"/>
		<stop  offset="0.6009" style="stop-color:#62CDF6"/>
		<stop  offset="0.8577" style="stop-color:#BDE7FB"/>
		<stop  offset="1" style="stop-color:#ECF8FE"/>
	</linearGradient>
	<path class="st15" d="M116.6,21.1c-5.2,16.6-8.3,27.3-11.3,34.1c3.9-3.7,7.7-8.2,11.5-13.5c1.8-5.6,3.9-12.4,6.5-20.6
		c2.3-7.4,6.4-13,14.2-15.4c0.2-0.4,0.4-0.8,0.6-1.3C125.4,5.2,119.5,11.6,116.6,21.1z"/>
	<g>
		<linearGradient id="SVGID_5_" gradientUnits="userSpaceOnUse" x1="135.4528" y1="64.44" x2="135.4528" y2="4.3345">
			<stop  offset="0" style="stop-color:#0475BC"/>
			<stop  offset="6.814706e-02" style="stop-color:#0679BF"/>
			<stop  offset="0.1793" style="stop-color:#0A87C9"/>
			<stop  offset="0.3196" style="stop-color:#129FDA"/>
			<stop  offset="0.4822" style="stop-color:#20C4F4"/>
			<stop  offset="0.6009" style="stop-color:#62CDF6"/>
			<stop  offset="0.8577" style="stop-color:#BDE7FB"/>
			<stop  offset="1" style="stop-color:#ECF8FE"/>
		</linearGradient>
		<path class="st16" d="M117,64.4c13.5-6.9,29.2-30.7,36.8-60.1h-1.6C134.3,36.5,128.5,58,117,64.4z"/>
		<linearGradient id="SVGID_6_" gradientUnits="userSpaceOnUse" x1="116.4784" y1="64.9828" x2="116.4784" y2="64.44">
			<stop  offset="0" style="stop-color:#0475BC"/>
			<stop  offset="6.814706e-02" style="stop-color:#0679BF"/>
			<stop  offset="0.1793" style="stop-color:#0A87C9"/>
			<stop  offset="0.3196" style="stop-color:#129FDA"/>
			<stop  offset="0.4822" style="stop-color:#20C4F4"/>
			<stop  offset="0.6009" style="stop-color:#62CDF6"/>
			<stop  offset="0.8577" style="stop-color:#BDE7FB"/>
			<stop  offset="1" style="stop-color:#ECF8FE"/>
		</linearGradient>
		<path class="st17" d="M117,64.5C117,64.5,117,64.4,117,64.5c-0.3,0.2-0.7,0.3-1.1,0.5C116.3,64.8,116.6,64.7,117,64.5z"/>
	</g>
	<linearGradient id="SVGID_7_" gradientUnits="userSpaceOnUse" x1="112.5638" y1="35.4003" x2="162.3968" y2="35.4003">
		<stop  offset="3.552921e-03" style="stop-color:#00A6E9"/>
		<stop  offset="1" style="stop-color:#ECF8FE"/>
	</linearGradient>
	<path class="st18" d="M115.9,65C115.9,65,115.9,65,115.9,65c-0.3,0.1-0.5,0.2-0.8,0.3c0,0-0.1,0-0.1,0c-0.1,0-0.1,0.1-0.2,0.1
		c0,0-0.1,0-0.1,0c-0.1,0-0.2,0.1-0.3,0.1c0,0-0.1,0-0.1,0c-0.1,0-0.1,0-0.2,0.1c-0.1,0-0.1,0-0.2,0.1c-0.1,0-0.1,0-0.1,0
		c-0.1,0-0.2,0.1-0.3,0.1c0,0-0.1,0-0.1,0c-0.1,0-0.1,0-0.2,0.1c0,0-0.1,0-0.1,0c-0.1,0-0.1,0-0.2,0.1c-0.1,0-0.2,0-0.3,0.1
		c0.6,0.2,1.3,0.3,2,0.3c13,0,26.1-23.3,47.9-62.1h-8.5C146,34.6,129.6,58.9,115.9,65z"/>
	<path class="st9" d="M11.9,53.4C25.3,27.6,31.7,11.3,42.8,6.9C31.3,11.4,18.3,28.4,11.9,53.4z"/>
	<linearGradient id="SVGID_8_" gradientUnits="userSpaceOnUse" x1="32.0088" y1="68.102" x2="32.0088" y2="5.7485">
		<stop  offset="3.965138e-03" style="stop-color:#00519B"/>
		<stop  offset="0.999" style="stop-color:#0083CA"/>
	</linearGradient>
	<path class="st19" d="M52.3,7.1C52.3,7.1,52.3,7.1,52.3,7.1c-0.1,0-0.1-0.1-0.2-0.1C52,7,52,7,51.9,6.9c0,0-0.1,0-0.2-0.1
		c-0.1,0-0.1,0-0.2-0.1c-0.1,0-0.1,0-0.1-0.1c-0.1,0-0.2-0.1-0.3-0.1c0,0-0.1,0-0.1,0c-0.1,0-0.2-0.1-0.2-0.1c0,0-0.1,0-0.1,0
		c-0.1,0-0.2-0.1-0.3-0.1c0,0,0,0,0,0c-0.1,0-0.2-0.1-0.4-0.1c0,0-0.1,0-0.1,0c-0.1,0-0.2-0.1-0.3-0.1c0,0,0,0-0.1,0
		C49.3,6,49.1,6,48.8,5.9c0,0-0.1,0-0.1,0c-0.1,0-0.2,0-0.3-0.1c0,0,0,0-0.1,0c-0.1,0-0.3,0-0.4,0c0,0,0,0-0.1,0c-0.1,0-0.2,0-0.3,0
		c-0.2,0-0.3,0-0.5,0c0,0-0.1,0-0.1,0c-0.1,0-0.1,0-0.2,0c0,0-0.1,0-0.1,0c-0.1,0-0.1,0-0.2,0c0,0-0.1,0-0.1,0
		c-0.1,0-0.3,0.1-0.4,0.1c0,0,0,0-0.1,0c-0.1,0-0.1,0-0.2,0c0,0-0.1,0-0.1,0c-0.1,0-0.1,0-0.2,0c0,0-0.1,0-0.1,0
		c-0.2,0.1-0.5,0.1-0.7,0.2c0,0-0.1,0-0.1,0c-0.1,0-0.1,0-0.2,0.1c0,0-0.1,0-0.1,0c-0.1,0-0.1,0-0.2,0.1c0,0,0,0-0.1,0
		c-0.2,0.1-0.3,0.1-0.5,0.2c0,0,0,0,0,0c-0.1,0-0.1,0.1-0.2,0.1c0,0-0.1,0-0.1,0c-0.1,0-0.1,0-0.2,0.1c0,0-0.1,0-0.1,0
		c-11.2,4.4-17.5,20.7-30.9,46.5c-1.2,4.6-2.1,9.6-2.8,14.7l7.4,0c0.1,0,0.3,0,0.4,0c0.2,0,0.3,0,0.5,0c0,0,0,0,0,0
		c0.1,0,0.1,0,0.2,0c0,0,0,0,0.1,0c0.1,0,0.2,0,0.2,0v0c10.5-22.4,21.8-40.3,33.1-51.1c1.2-2.8,2.5-5,3.8-6.6
		C54.1,9,53.2,7.9,52.3,7.1z"/>
	<linearGradient id="SVGID_9_" gradientUnits="userSpaceOnUse" x1="34.5515" y1="67.9888" x2="34.5515" y2="16.9292">
		<stop  offset="5.341159e-02" style="stop-color:#005BAA"/>
		<stop  offset="0.3471" style="stop-color:#008FD5"/>
		<stop  offset="0.4899" style="stop-color:#00A6E9"/>
		<stop  offset="1" style="stop-color:#75BEE9"/>
	</linearGradient>
	<path class="st20" d="M18,68L18,68c3.6-0.5,7.8-2.6,10.6-7.7C34.3,49.6,40,40.1,45.7,32.1c2.1-6.5,3.8-11.4,5.4-15.2
		C39.8,27.7,28.5,45.5,18,68z"/>
	<linearGradient id="SVGID_10_" gradientUnits="userSpaceOnUse" x1="17.2464" y1="50.0876" x2="45.6587" y2="50.0876">
		<stop  offset="0" style="stop-color:#00A1E4"/>
		<stop  offset="0.1675" style="stop-color:#00AAE7"/>
		<stop  offset="0.7447" style="stop-color:#9ED6F5"/>
		<stop  offset="0.9984" style="stop-color:#D4EFFC"/>
	</linearGradient>
	<path class="st21" d="M18,68c-0.1,0-0.2,0-0.2,0c0,0,0,0,0,0c-0.1,0-0.1,0-0.2,0c0,0,0,0,0,0c-0.1,0-0.2,0-0.2,0
		c13.3-0.5,19.4-7.2,22.5-17c2.3-7.5,4.3-13.7,5.9-19c-5.7,8-11.4,17.5-17.1,28.1C25.8,65.4,21.6,67.5,18,68z"/>
	<g>
		<path class="st22" d="M47.6,5.7c0.4,0,0.7,0,1.1,0c3.1,0,5.8,1,8.2,2.7c2.5-2,5.6-2.7,9.8-2.7H46.2C46.7,5.7,47.2,5.7,47.6,5.7z"
			/>
		<path class="st23" d="M47.6,5.7C47.7,5.8,47.7,5.8,47.6,5.7c0.2,0,0.2,0,0.3,0c0,0,0,0,0.1,0c0.1,0,0.3,0,0.4,0c0,0,0,0,0.1,0
			c0.1,0,0.2,0,0.3,0.1c0,0,0.1,0,0.1,0c0.2,0,0.5,0.1,0.7,0.2c0,0,0,0,0.1,0c0.1,0,0.2,0.1,0.3,0.1c0,0,0.1,0,0.1,0
			c0.1,0,0.2,0.1,0.4,0.1c0,0,0,0,0,0c0.1,0,0.2,0.1,0.3,0.1c0,0,0.1,0,0.1,0c0.1,0,0.2,0.1,0.2,0.1c0,0,0.1,0,0.1,0
			c0.1,0,0.2,0.1,0.3,0.1c0,0,0.1,0,0.1,0.1c0.1,0,0.1,0.1,0.2,0.1c0.1,0,0.1,0.1,0.2,0.1C52,7,52.1,7,52.1,7
			c1.3,0.6,2.5,1.5,3.5,2.5c0.4-0.4,0.8-0.8,1.3-1.1c-2.4-1.7-5.1-2.7-8.2-2.7C48.3,5.7,48,5.7,47.6,5.7z"/>
		<path class="st24" d="M56.9,8.4c0.8,0.6,1.6,1.3,2.4,2c3.5-2.2,7-3.7,10.4-4.3c1.3-0.2,2.6-0.4,3.9-0.4h-6.9
			C62.5,5.7,59.4,6.4,56.9,8.4z"/>
		<path class="st25" d="M55.6,9.5c0.7,0.6,1.3,1.3,1.9,2.1c0.6-0.4,1.2-0.8,1.7-1.2c-0.8-0.8-1.6-1.4-2.4-2
			C56.5,8.7,56,9.1,55.6,9.5z"/>
	</g>
	<linearGradient id="SVGID_11_" gradientUnits="userSpaceOnUse" x1="80.3915" y1="65.1264" x2="80.3915" y2="7.1488">
		<stop  offset="0" style="stop-color:#00549A"/>
		<stop  offset="0.1103" style="stop-color:#0063A6"/>
		<stop  offset="0.2802" style="stop-color:#0A77B8"/>
		<stop  offset="0.4156" style="stop-color:#1185C5"/>
		<stop  offset="0.4986" style="stop-color:#118ACB"/>
		<stop  offset="0.5821" style="stop-color:#1185C5"/>
		<stop  offset="0.7183" style="stop-color:#0A77B8"/>
		<stop  offset="0.8891" style="stop-color:#0063A6"/>
		<stop  offset="1" style="stop-color:#00549A"/>
	</linearGradient>
	<path class="st26" d="M72.6,7.1c-3.5,1.3-7.1,3.5-10.6,6.4c10.6,14.6,14.4,44.8,28.2,51.5c2.8-1,5.7-2.5,8.5-4.6
		C87.7,47.2,86.5,14.4,72.6,7.1z"/>
	<linearGradient id="SVGID_12_" gradientUnits="userSpaceOnUse" x1="86.8012" y1="60.5697" x2="86.8012" y2="6.0453">
		<stop  offset="0" style="stop-color:#1C9AD6"/>
		<stop  offset="0.2428" style="stop-color:#23A0DA"/>
		<stop  offset="0.5253" style="stop-color:#2FABE1"/>
		<stop  offset="0.5921" style="stop-color:#27A0DA"/>
		<stop  offset="0.7706" style="stop-color:#1787C9"/>
		<stop  offset="0.9128" style="stop-color:#0B7ABF"/>
		<stop  offset="1" style="stop-color:#0475BC"/>
	</linearGradient>
	<path class="st27" d="M76.6,6c-1.3,0.2-2.6,0.6-4,1.1c13.9,7.3,15.1,40.1,26.1,53.4c0.7-0.5,1.5-1.1,2.2-1.7
		C94,43.6,92.1,9.9,76.6,6z"/>
	<linearGradient id="SVGID_13_" gradientUnits="userSpaceOnUse" x1="75.1554" y1="66.1059" x2="75.1554" y2="13.5893">
		<stop  offset="0" style="stop-color:#1C9AD6"/>
		<stop  offset="0.2428" style="stop-color:#23A0DA"/>
		<stop  offset="0.5253" style="stop-color:#2FABE1"/>
		<stop  offset="0.5921" style="stop-color:#27A0DA"/>
		<stop  offset="0.7706" style="stop-color:#1787C9"/>
		<stop  offset="0.9128" style="stop-color:#0B7ABF"/>
		<stop  offset="1" style="stop-color:#0475BC"/>
	</linearGradient>
	<path class="st28" d="M62,13.6c-0.6,0.5-1.3,1.1-1.9,1.7c9.4,16.1,11.2,47.3,26.5,50.8c1.2-0.2,2.4-0.6,3.6-1
		C76.5,58.4,72.7,28.1,62,13.6z"/>
	<linearGradient id="SVGID_14_" gradientUnits="userSpaceOnUse" x1="72.245" y1="66.48" x2="72.245" y2="15.268">
		<stop  offset="0" style="stop-color:#2484C6"/>
		<stop  offset="0.1659" style="stop-color:#46A1D9"/>
		<stop  offset="0.3149" style="stop-color:#5CB8E8"/>
		<stop  offset="0.44" style="stop-color:#69C8F1"/>
		<stop  offset="0.526" style="stop-color:#6DCFF6"/>
		<stop  offset="0.6377" style="stop-color:#65C5F0"/>
		<stop  offset="0.8198" style="stop-color:#4AB1E4"/>
		<stop  offset="1" style="stop-color:#1C9AD6"/>
	</linearGradient>
	<path class="st29" d="M60.1,15.3c-0.7,0.7-1.5,1.4-2.2,2.1c5.8,17.6,8,49.1,24.8,49.1c1.3,0,2.6-0.1,3.9-0.4
		C71.3,62.5,69.4,31.4,60.1,15.3z"/>
	<linearGradient id="SVGID_15_" gradientUnits="userSpaceOnUse" x1="127.0858" y1="41.7055" x2="127.0858" y2="5.6723">
		<stop  offset="0" style="stop-color:#31A4DD"/>
		<stop  offset="1" style="stop-color:#2397D4"/>
	</linearGradient>
	<path class="st30" d="M123.2,21.1c-2.6,8.2-4.7,15-6.5,20.6c7.1-9.7,14-21.9,20.6-36C129.7,8.1,125.6,13.6,123.2,21.1z"/>
	<path class="st31" d="M76.6,6c1.2-0.2,2.4-0.3,3.7-0.3l-6.7,0C74.6,5.7,75.6,5.8,76.6,6z"/>
</g>
</svg>
