<?xml version="1.0" encoding="UTF-8" standalone="no"?>
<svg
   xmlns:dc="http://purl.org/dc/elements/1.1/"
   xmlns:cc="http://creativecommons.org/ns#"
   xmlns:rdf="http://www.w3.org/1999/02/22-rdf-syntax-ns#"
   xmlns:svg="http://www.w3.org/2000/svg"
   xmlns="http://www.w3.org/2000/svg"
   xmlns:sodipodi="http://sodipodi.sourceforge.net/DTD/sodipodi-0.dtd"
   xmlns:inkscape="http://www.inkscape.org/namespaces/inkscape"
   id="Слой_1"
   data-name="Слой 1"
   viewBox="0 0 128.99001 78.700172"
   version="1.1"
   sodipodi:docname="1qa.svg"
   width="128.99001"
   height="78.700172"
   inkscape:version="0.92.2 (unknown)">
  <metadata
     id="metadata15">
    <rdf:RDF>
      <cc:Work
         rdf:about="">
        <dc:format>image/svg+xml</dc:format>
        <dc:type
           rdf:resource="http://purl.org/dc/dcmitype/StillImage" />
        <dc:title>1qa</dc:title>
      </cc:Work>
    </rdf:RDF>
  </metadata>
  <sodipodi:namedview
     pagecolor="#ffffff"
     bordercolor="#666666"
     borderopacity="1"
     objecttolerance="10"
     gridtolerance="10"
     guidetolerance="10"
     inkscape:pageopacity="0"
     inkscape:pageshadow="2"
     inkscape:window-width="640"
     inkscape:window-height="480"
     id="namedview13"
     showgrid="false"
     fit-margin-top="0"
     fit-margin-left="0"
     fit-margin-right="0"
     fit-margin-bottom="0"
     inkscape:zoom="1.0851852"
     inkscape:cx="67.989999"
     inkscape:cy="36.51"
     inkscape:window-x="49"
     inkscape:window-y="24"
     inkscape:window-maximized="0"
     inkscape:current-layer="Слой_1" />
  <defs
     id="defs4">
    <style
       id="style2">.cls-1{fill:#273946;}.cls-2{fill:#137580;}</style>
  </defs>
  <title
     id="title6">1qa</title>
  <path
     class="cls-1"
     d="m 112.49,78.690175 h 16.5 L 101.23,0.90017479 H 86.299999 l -28.31,77.79000021 h 16.24 l 5.81,-17 H 106.67 Z m -27.610001,-31.17 8.49,-24.88 8.490001,24.88 z"
     id="path8"
     inkscape:connector-curvature="0"
     style="fill:#273946" />
  <path
     class="cls-2"
     d="m 77.779999,38.880175 a 38.89,38.89 0 1 0 -16.66,31.92 l 9.07,7.9 4.71,-13 -4.53,-4 a 38.72,38.72 0 0 0 7.41,-22.82 z m -38.9,26.19 a 26.19,26.19 0 1 1 21.92,-11.88 l -13.4,-11.87 -8.64,10 12.33,10.74 a 26.08,26.08 0 0 1 -12.2,3.01 z"
     id="path10"
     inkscape:connector-curvature="0"
     style="fill:#137580" />
</svg>
