<?xml version="1.0" encoding="UTF-8" standalone="no"?>
<svg
   xmlns:dc="http://purl.org/dc/elements/1.1/"
   xmlns:cc="http://creativecommons.org/ns#"
   xmlns:rdf="http://www.w3.org/1999/02/22-rdf-syntax-ns#"
   xmlns:svg="http://www.w3.org/2000/svg"
   xmlns="http://www.w3.org/2000/svg"
   xmlns:xlink="http://www.w3.org/1999/xlink"
   xmlns:sodipodi="http://sodipodi.sourceforge.net/DTD/sodipodi-0.dtd"
   xmlns:inkscape="http://www.inkscape.org/namespaces/inkscape"
   id="Слой_1"
   data-name="Слой 1"
   viewBox="0 0 165.28 49.275654"
   version="1.1"
   sodipodi:docname="1ruby.svg"
   width="165.28"
   height="49.275654"
   inkscape:version="0.92.2 (unknown)">
  <metadata
     id="metadata177">
    <rdf:RDF>
      <cc:Work
         rdf:about="">
        <dc:format>image/svg+xml</dc:format>
        <dc:type
           rdf:resource="http://purl.org/dc/dcmitype/StillImage" />
        <dc:title>1ruby</dc:title>
      </cc:Work>
    </rdf:RDF>
  </metadata>
  <sodipodi:namedview
     pagecolor="#ffffff"
     bordercolor="#666666"
     borderopacity="1"
     objecttolerance="10"
     gridtolerance="10"
     guidetolerance="10"
     inkscape:pageopacity="0"
     inkscape:pageshadow="2"
     inkscape:window-width="640"
     inkscape:window-height="480"
     id="namedview175"
     showgrid="false"
     fit-margin-top="0"
     fit-margin-left="0"
     fit-margin-right="0"
     fit-margin-bottom="0"
     inkscape:zoom="1.0851852"
     inkscape:cx="84.29"
     inkscape:cy="21.665654"
     inkscape:window-x="49"
     inkscape:window-y="24"
     inkscape:window-maximized="0"
     inkscape:current-layer="Слой_1" />
  <defs
     id="defs146">
    <style
       id="style2">.cls-1{fill:url(#Безымянный_градиент_2);}.cls-2{fill:url(#Безымянный_градиент_3);}.cls-3{fill:url(#Безымянный_градиент_3-2);}.cls-4{fill:url(#Безымянный_градиент_4);}.cls-5{fill:url(#Безымянный_градиент_5);}.cls-6{fill:url(#Безымянный_градиент_6);}.cls-7{fill:url(#Безымянный_градиент_7);}.cls-8{fill:url(#Безымянный_градиент_8);}.cls-9{fill:#fff;}.cls-10{fill:url(#Безымянный_градиент_9);}.cls-11{fill:url(#Безымянный_градиент_10);}.cls-12{fill:url(#Безымянный_градиент_11);}.cls-13{fill:url(#Безымянный_градиент_12);}.cls-14{fill:#9e1209;}.cls-15{fill:url(#Безымянный_градиент_13);}.cls-16{fill:url(#Безымянный_градиент_14);}.cls-17{fill:url(#Безымянный_градиент_15);}.cls-18{fill:url(#Безымянный_градиент_16);}</style>
    <linearGradient
       id="Безымянный_градиент_2"
       x1="1987.2"
       y1="-3355.1599"
       x2="1955.04"
       y2="-3298.3799"
       gradientTransform="matrix(0.28,0,0,-0.28,-470.83,-845.15)"
       gradientUnits="userSpaceOnUse">
      <stop
         offset="0"
         stop-color="#fb7655"
         id="stop4" />
      <stop
         offset="0.41"
         stop-color="#e42b1e"
         id="stop6" />
      <stop
         offset="0.99"
         stop-color="#900"
         id="stop8" />
      <stop
         offset="1"
         stop-color="#900"
         id="stop10" />
    </linearGradient>
    <linearGradient
       id="Безымянный_градиент_3"
       x1="2003.23"
       y1="-3307.46"
       x2="1961.78"
       y2="-3279.6399"
       gradientTransform="matrix(0.28,0,0,-0.28,-470.83,-845.15)"
       gradientUnits="userSpaceOnUse">
      <stop
         offset="0"
         stop-color="#871101"
         id="stop13" />
      <stop
         offset="0.99"
         stop-color="#911209"
         id="stop15" />
      <stop
         offset="1"
         stop-color="#911209"
         id="stop17" />
    </linearGradient>
    <linearGradient
       id="Безымянный_градиент_3-2"
       x1="1970.0601"
       y1="-3356.8799"
       x2="1928.61"
       y2="-3329.0701"
       xlink:href="#Безымянный_градиент_3" />
    <linearGradient
       id="Безымянный_градиент_4"
       x1="1883.03"
       y1="-3287.3201"
       x2="1889.46"
       y2="-3329.0801"
       gradientTransform="matrix(0.28,0,0,-0.28,-470.83,-845.15)"
       gradientUnits="userSpaceOnUse">
      <stop
         offset="0"
         stop-color="#fff"
         id="stop21" />
      <stop
         offset="0.23"
         stop-color="#e57252"
         id="stop23" />
      <stop
         offset="0.46"
         stop-color="#de3b20"
         id="stop25" />
      <stop
         offset="0.99"
         stop-color="#a60003"
         id="stop27" />
      <stop
         offset="1"
         stop-color="#a60003"
         id="stop29" />
    </linearGradient>
    <linearGradient
       id="Безымянный_градиент_5"
       x1="1927.23"
       y1="-3248.3301"
       x2="1929.6"
       y2="-3290.95"
       gradientTransform="matrix(0.28,0,0,-0.28,-470.83,-845.15)"
       gradientUnits="userSpaceOnUse">
      <stop
         offset="0"
         stop-color="#fff"
         id="stop32" />
      <stop
         offset="0.23"
         stop-color="#e4714e"
         id="stop34" />
      <stop
         offset="0.56"
         stop-color="#be1a0d"
         id="stop36" />
      <stop
         offset="0.99"
         stop-color="#a80d00"
         id="stop38" />
      <stop
         offset="1"
         stop-color="#a80d00"
         id="stop40" />
    </linearGradient>
    <linearGradient
       id="Безымянный_градиент_6"
       x1="1966.45"
       y1="-3208.9399"
       x2="1973.54"
       y2="-3239.48"
       gradientTransform="matrix(0.28,0,0,-0.28,-470.83,-845.15)"
       gradientUnits="userSpaceOnUse">
      <stop
         offset="0"
         stop-color="#fff"
         id="stop43" />
      <stop
         offset="0.18"
         stop-color="#e46342"
         id="stop45" />
      <stop
         offset="0.4"
         stop-color="#c82410"
         id="stop47" />
      <stop
         offset="0.99"
         stop-color="#a80d00"
         id="stop49" />
      <stop
         offset="1"
         stop-color="#a80d00"
         id="stop51" />
    </linearGradient>
    <linearGradient
       id="Безымянный_градиент_7"
       x1="1944.8101"
       y1="-3198.1799"
       x2="1975.35"
       y2="-3182.9099"
       gradientTransform="matrix(0.28,0,0,-0.28,-470.83,-845.15)"
       gradientUnits="userSpaceOnUse">
      <stop
         offset="0"
         stop-color="#fff"
         id="stop54" />
      <stop
         offset="0.54"
         stop-color="#c81f11"
         id="stop56" />
      <stop
         offset="0.99"
         stop-color="#bf0905"
         id="stop58" />
      <stop
         offset="1"
         stop-color="#bf0905"
         id="stop60" />
    </linearGradient>
    <linearGradient
       id="Безымянный_градиент_8"
       x1="1856.26"
       y1="-3276.6799"
       x2="1858.78"
       y2="-3301.8501"
       gradientTransform="matrix(0.28,0,0,-0.28,-470.83,-845.15)"
       gradientUnits="userSpaceOnUse">
      <stop
         offset="0"
         stop-color="#fff"
         id="stop63" />
      <stop
         offset="0.31"
         stop-color="#de4024"
         id="stop65" />
      <stop
         offset="0.99"
         stop-color="#bf190b"
         id="stop67" />
      <stop
         offset="1"
         stop-color="#bf190b"
         id="stop69" />
    </linearGradient>
    <linearGradient
       id="Безымянный_градиент_9"
       x1="1838.98"
       y1="-3308.6499"
       x2="1957.15"
       y2="-3187.1399"
       gradientTransform="matrix(0.28,0,0,-0.28,-470.83,-845.15)"
       gradientUnits="userSpaceOnUse">
      <stop
         offset="0"
         stop-color="#bd0012"
         id="stop72" />
      <stop
         offset="0.07"
         stop-color="#fff"
         id="stop74" />
      <stop
         offset="0.17"
         stop-color="#fff"
         id="stop76" />
      <stop
         offset="0.27"
         stop-color="#c82f1c"
         id="stop78" />
      <stop
         offset="0.33"
         stop-color="#820c01"
         id="stop80" />
      <stop
         offset="0.46"
         stop-color="#a31601"
         id="stop82" />
      <stop
         offset="0.72"
         stop-color="#b31301"
         id="stop84" />
      <stop
         offset="0.99"
         stop-color="#e82609"
         id="stop86" />
      <stop
         offset="1"
         stop-color="#e82609"
         id="stop88" />
    </linearGradient>
    <linearGradient
       id="Безымянный_градиент_10"
       x1="1929.49"
       y1="-3320.9099"
       x2="1893.9"
       y2="-3312.1201"
       gradientTransform="matrix(0.28,0,0,-0.28,-470.83,-845.15)"
       gradientUnits="userSpaceOnUse">
      <stop
         offset="0"
         stop-color="#8c0c01"
         id="stop91" />
      <stop
         offset="0.54"
         stop-color="#990c00"
         id="stop93" />
      <stop
         offset="0.99"
         stop-color="#a80d0e"
         id="stop95" />
      <stop
         offset="1"
         stop-color="#a80d0e"
         id="stop97" />
    </linearGradient>
    <linearGradient
       id="Безымянный_градиент_11"
       x1="1990.63"
       y1="-3278.1899"
       x2="1959.01"
       y2="-3249.8501"
       gradientTransform="matrix(0.28,0,0,-0.28,-470.83,-845.15)"
       gradientUnits="userSpaceOnUse">
      <stop
         offset="0"
         stop-color="#7e110b"
         id="stop100" />
      <stop
         offset="0.99"
         stop-color="#9e0c00"
         id="stop102" />
      <stop
         offset="1"
         stop-color="#9e0c00"
         id="stop104" />
    </linearGradient>
    <linearGradient
       id="Безымянный_градиент_12"
       x1="2002.25"
       y1="-3226.1899"
       x2="1986.5"
       y2="-3209.3501"
       gradientTransform="matrix(0.28,0,0,-0.28,-470.83,-845.15)"
       gradientUnits="userSpaceOnUse">
      <stop
         offset="0"
         stop-color="#79130d"
         id="stop107" />
      <stop
         offset="0.99"
         stop-color="#9e120b"
         id="stop109" />
      <stop
         offset="1"
         stop-color="#9e120b"
         id="stop111" />
    </linearGradient>
    <radialGradient
       id="Безымянный_градиент_13"
       cx="1963.9301"
       cy="-3250.3899"
       r="38.75"
       gradientTransform="matrix(0.28,0,0,-0.28,-470.83,-845.15)"
       gradientUnits="userSpaceOnUse">
      <stop
         offset="0"
         stop-color="#a80d00"
         id="stop114" />
      <stop
         offset="0.99"
         stop-color="#7e0e08"
         id="stop116" />
      <stop
         offset="1"
         stop-color="#7e0e08"
         id="stop118" />
    </radialGradient>
    <radialGradient
       id="Безымянный_градиент_14"
       cx="1910.27"
       cy="-3301.45"
       r="51.509998"
       gradientTransform="matrix(0.28,0,0,-0.28,-470.83,-845.15)"
       gradientUnits="userSpaceOnUse">
      <stop
         offset="0"
         stop-color="#a30c00"
         id="stop121" />
      <stop
         offset="0.99"
         stop-color="#800e08"
         id="stop123" />
      <stop
         offset="1"
         stop-color="#800e08"
         id="stop125" />
    </radialGradient>
    <linearGradient
       id="Безымянный_градиент_15"
       x1="1873.78"
       y1="-3341.1499"
       x2="1860.9399"
       y2="-3297.6001"
       gradientTransform="matrix(0.28,0,0,-0.28,-470.83,-845.15)"
       gradientUnits="userSpaceOnUse">
      <stop
         offset="0"
         stop-color="#8b2114"
         id="stop128" />
      <stop
         offset="0.43"
         stop-color="#9e100a"
         id="stop130" />
      <stop
         offset="0.99"
         stop-color="#b3100c"
         id="stop132" />
      <stop
         offset="1"
         stop-color="#b3100c"
         id="stop134" />
    </linearGradient>
    <linearGradient
       id="Безымянный_градиент_16"
       x1="1972.25"
       y1="-3196.8401"
       x2="2001.03"
       y2="-3209.54"
       gradientTransform="matrix(0.28,0,0,-0.28,-470.83,-845.15)"
       gradientUnits="userSpaceOnUse">
      <stop
         offset="0"
         stop-color="#b31000"
         id="stop137" />
      <stop
         offset="0.44"
         stop-color="#910f08"
         id="stop139" />
      <stop
         offset="0.99"
         stop-color="#791c12"
         id="stop141" />
      <stop
         offset="1"
         stop-color="#791c12"
         id="stop143" />
    </linearGradient>
  </defs>
  <title
     id="title148">1ruby</title>
  <g
     id="g3212"
     transform="translate(-50.71,-52.39)">
    <polygon
       id="polygon3282"
       class="cls-1"
       points="83.95,80.63 59.45,95.17 91.17,93.02 93.61,61.04 " />
    <polygon
       id="polygon3293"
       class="cls-2"
       points="91.22,93 88.5,74.18 81.07,83.99 " />
    <polygon
       id="polygon3304"
       class="cls-3"
       points="91.26,93 71.29,91.43 59.56,95.13 " />
    <polygon
       id="polygon3319"
       class="cls-4"
       points="59.59,95.13 64.58,78.79 53.6,81.14 " />
    <polygon
       id="polygon3334"
       class="cls-5"
       points="81.07,84.04 76.48,66.06 63.34,78.37 " />
    <polygon
       id="polygon3349"
       class="cls-6"
       points="92.57,66.31 80.15,56.17 76.69,67.35 " />
    <polygon
       id="polygon3362"
       class="cls-7"
       points="86.76,52.55 79.46,56.59 74.85,52.5 " />
    <polygon
       id="polygon3375"
       class="cls-8"
       points="50.71,86.62 53.77,81.04 51.29,74.39 " />
    <path
       id="path3377"
       class="cls-9"
       d="m 51.13,74.18 2.49,7.06 10.82,-2.43 12.35,-11.47 3.49,-11.07 -5.49,-3.88 -9.33,3.49 c -2.94,2.73 -8.65,8.15 -8.85,8.25 -0.2,0.1 -3.77,6.87 -5.48,10.05 z"
       inkscape:connector-curvature="0"
       style="fill:#ffffff" />
    <path
       id="path3400"
       class="cls-10"
       d="M 59.87,61.49 C 66.24,55.17 74.46,51.44 77.61,54.62 80.76,57.8 77.42,65.53 71.05,71.85 64.68,78.17 56.56,82.1 53.41,78.92 50.26,75.74 53.5,67.81 59.87,61.49 Z"
       inkscape:connector-curvature="0" />
    <path
       id="path3413"
       class="cls-11"
       d="m 59.59,95.13 5,-16.4 L 81,84 C 75,89.59 68.42,94.3 59.59,95.13 Z"
       inkscape:connector-curvature="0" />
    <path
       id="path3424"
       class="cls-12"
       d="M 76.82,67.3 81,84 c 5,-5.22 9.42,-10.83 11.6,-17.78 z"
       inkscape:connector-curvature="0" />
    <path
       id="path3435"
       class="cls-13"
       d="m 92.6,66.33 c 1.69,-5.1 2.08,-12.41 -5.89,-13.77 l -6.54,3.61 z"
       inkscape:connector-curvature="0" />
    <path
       id="path3437"
       class="cls-14"
       d="m 50.71,86.55 c 0.23,8.41 6.3,8.54 8.89,8.61 l -6,-13.95 z"
       inkscape:connector-curvature="0"
       style="fill:#9e1209" />
    <path
       id="path3448"
       class="cls-15"
       d="m 76.84,67.33 11.66,7.14 c 0.24,0.14 3.32,-5.18 4,-8.19 z"
       inkscape:connector-curvature="0" />
    <path
       id="path3459"
       class="cls-16"
       d="M 64.53,78.73 71.15,91.5 A 42.79,42.79 0 0 0 80.93,84 Z"
       inkscape:connector-curvature="0" />
    <path
       id="path3472"
       class="cls-17"
       d="M 53.6,81.23 52.66,92.4 c 1.77,2.42 4.2,2.63 6.76,2.44 C 57.57,90.23 53.88,81 53.6,81.23 Z"
       inkscape:connector-curvature="0" />
    <path
       id="path3485"
       class="cls-18"
       d="M 80.14,56.2 93.28,58 c -0.7,-3 -2.86,-4.89 -6.53,-5.49 z"
       inkscape:connector-curvature="0" />
  </g>
  <g
     id="g4251"
     transform="translate(-50.71,-52.39)">
    <path
       id="path3206"
       d="m 133.87,90.68 h -9.44 q -3.14,-4.92 -5.69,-8.5 -2.55,-3.58 -5.49,-7.39 h -3.58 v 11.12 a 4,4 0 0 0 0.27,1.53 1.92,1.92 0 0 0 1.16,1 7.64,7.64 0 0 0 1.56,0.32 q 1.11,0.15 1.88,0.17 v 1.76 H 99.71 v -1.76 l 1.71,-0.17 a 6,6 0 0 0 1.58,-0.32 2.07,2.07 0 0 0 1.06,-0.94 3.21,3.21 0 0 0 0.35,-1.58 V 60.54 A 4.4,4.4 0 0 0 104.16,59.01 1.82,1.82 0 0 0 103,58 9.94,9.94 0 0 0 101.39,57.6 13.85,13.85 0 0 0 99.71,57.35 V 55.6 h 16.19 a 17.83,17.83 0 0 1 4.18,0.47 11,11 0 0 1 3.54,1.46 7.39,7.39 0 0 1 2.45,2.6 7.54,7.54 0 0 1 0.93,3.87 9.67,9.67 0 0 1 -0.62,3.58 7.39,7.39 0 0 1 -1.83,2.69 11.12,11.12 0 0 1 -2.67,1.85 21,21 0 0 1 -3.44,1.31 q 2.6,3.44 4.3,5.79 L 127,84.9 a 12.49,12.49 0 0 0 2,2.2 11.28,11.28 0 0 0 1.76,1.14 6,6 0 0 0 1.61,0.49 12,12 0 0 0 1.61,0.2 v 1.76 m -13,-26.16 a 6.42,6.42 0 0 0 -7,-6.92 h -4.2 v 15.05 h 3.24 a 7.64,7.64 0 0 0 8,-8.13"
       inkscape:connector-curvature="0" />
    <path
       id="path3208"
       d="m 160.7,90.24 -7.94,0.54 -0.37,-0.35 v -3.09 h -0.15 q -0.59,0.62 -1.34,1.34 A 9.74,9.74 0 0 1 149.19,89.94 10.92,10.92 0 0 1 147,91 9.73,9.73 0 0 1 144.06,91.35 6,6 0 0 1 139.12,89.25 9.75,9.75 0 0 1 137.48,83 V 71.37 a 2.91,2.91 0 0 0 -0.35,-1.48 2.8,2.8 0 0 0 -2.08,-1.48 9.37,9.37 0 0 0 -1.41,-0.2 V 66.6 l 8.13,-0.59 0.37,0.35 v 16.93 a 5.83,5.83 0 0 0 1.19,4 3.68,3.68 0 0 0 2.84,1.34 6.55,6.55 0 0 0 2.42,-0.42 7,7 0 0 0 1.78,-1 8.22,8.22 0 0 0 1.16,-1.09 6.36,6.36 0 0 0 0.79,-1.09 V 71.2 a 2.89,2.89 0 0 0 -0.35,-1.43 3.2,3.2 0 0 0 -1,-1.09 2.71,2.71 0 0 0 -1.34,-0.35 q -0.87,-0.07 -2,-0.12 V 66.6 l 8.85,-0.59 0.37,0.35 v 19.35 a 2.8,2.8 0 0 0 0.35,1.43 3.13,3.13 0 0 0 1,1 2.9,2.9 0 0 0 1.06,0.37 q 0.62,0.07 1.36,0.1 v 1.61"
       inkscape:connector-curvature="0" />
    <path
       id="path3210"
       d="m 188.48,78.47 a 13.05,13.05 0 0 1 -3.48,9.22 10.66,10.66 0 0 1 -8,3.73 13,13 0 0 1 -4,-0.62 16.86,16.86 0 0 1 -3.63,-1.66 L 167.57,92 166,91.64 q 0.12,-1.83 0.17,-4.4 0.05,-2.57 0,-5 V 58.15 a 3.92,3.92 0 0 0 -0.4,-1.68 2.61,2.61 0 0 0 -1,-1.21 3.84,3.84 0 0 0 -1.58,-0.47 q -1.09,-0.17 -1.76,-0.22 V 53 l 8.95,-0.57 0.35,0.37 v 16.05 h 0.17 a 10.55,10.55 0 0 1 3.34,-2.45 8.76,8.76 0 0 1 3.58,-0.82 9.46,9.46 0 0 1 7.52,3.56 13.85,13.85 0 0 1 3,9.27 m -5.17,0.17 a 18.32,18.32 0 0 0 -0.4,-3.73 10.65,10.65 0 0 0 -1.24,-3.31 6.91,6.91 0 0 0 -2.2,-2.32 5.83,5.83 0 0 0 -3.26,-0.89 6.42,6.42 0 0 0 -3,0.69 8.14,8.14 0 0 0 -2.32,1.83 v 14.24 a 6.31,6.31 0 0 0 0.57,1.38 6.41,6.41 0 0 0 2.87,2.65 5.75,5.75 0 0 0 7.17,-2.5 14.8,14.8 0 0 0 1.85,-8"
       inkscape:connector-curvature="0" />
    <path
       id="path3212"
       d="m 190.26,98.64 a 3,3 0 0 1 0.67,-2 2.21,2.21 0 0 1 1.71,-0.77 2.9,2.9 0 0 1 1.36,0.3 3.82,3.82 0 0 1 1,0.77 6.4,6.4 0 0 1 0.79,1 q 0.42,0.64 0.67,1.06 a 9.8,9.8 0 0 0 2.94,-3.49 27.78,27.78 0 0 0 2.5,-4.94 q -2.35,-5.86 -4.25,-10.48 -1.9,-4.62 -4,-9.57 a 3.49,3.49 0 0 0 -1.58,-1.76 6.42,6.42 0 0 0 -2.23,-0.82 V 66.3 H 201 V 68 a 7.57,7.57 0 0 0 -1.78,0.32 q -1,0.27 -1,0.77 l 0.12,0.37 a 7.44,7.44 0 0 1 0.25,0.72 q 0.94,2.45 2.87,7.07 1.93,4.62 3,7.37 l 2.3,-5.46 q 1.21,-2.84 2.69,-6.7 0.17,-0.47 0.49,-1.29 a 4.15,4.15 0 0 0 0.32,-1.43 q 0,-0.64 -1.14,-1.19 a 6.4,6.4 0 0 0 -2.13,-0.69 V 66.3 h 9 v 1.53 a 6,6 0 0 0 -2,0.87 4.39,4.39 0 0 0 -1.8,2.05 q -2.89,6.83 -5.19,12.44 -2.3,5.61 -3.46,8.26 a 43.25,43.25 0 0 1 -2.79,5.39 15.74,15.74 0 0 1 -2.37,3.07 6.66,6.66 0 0 1 -2.08,1.38 5,5 0 0 1 -1.9,0.37 4.65,4.65 0 0 1 -3,-0.91 2.7,2.7 0 0 1 -1.09,-2.1"
       inkscape:connector-curvature="0" />
  </g>
</svg>
