<?xml version="1.0" encoding="UTF-8" standalone="no"?>
<svg
   xmlns:dc="http://purl.org/dc/elements/1.1/"
   xmlns:cc="http://creativecommons.org/ns#"
   xmlns:rdf="http://www.w3.org/1999/02/22-rdf-syntax-ns#"
   xmlns:svg="http://www.w3.org/2000/svg"
   xmlns="http://www.w3.org/2000/svg"
   xmlns:sodipodi="http://sodipodi.sourceforge.net/DTD/sodipodi-0.dtd"
   xmlns:inkscape="http://www.inkscape.org/namespaces/inkscape"
   id="Слой_1"
   data-name="Слой 1"
   viewBox="0 0 150.08173 104.98044"
   version="1.1"
   sodipodi:docname="1salesforce.svg"
   width="150.08173"
   height="104.98044"
   inkscape:version="0.92.2 (unknown)">
  <metadata
     id="metadata56">
    <rdf:RDF>
      <cc:Work
         rdf:about="">
        <dc:format>image/svg+xml</dc:format>
        <dc:type
           rdf:resource="http://purl.org/dc/dcmitype/StillImage" />
        <dc:title>1salesforce</dc:title>
      </cc:Work>
    </rdf:RDF>
  </metadata>
  <sodipodi:namedview
     pagecolor="#ffffff"
     bordercolor="#666666"
     borderopacity="1"
     objecttolerance="10"
     gridtolerance="10"
     guidetolerance="10"
     inkscape:pageopacity="0"
     inkscape:pageshadow="2"
     inkscape:window-width="640"
     inkscape:window-height="480"
     id="namedview54"
     showgrid="false"
     fit-margin-top="0"
     fit-margin-left="0"
     fit-margin-right="0"
     fit-margin-bottom="0"
     inkscape:zoom="1.0851852"
     inkscape:cx="72.998159"
     inkscape:cy="163.69702"
     inkscape:window-x="59"
     inkscape:window-y="34"
     inkscape:window-maximized="0"
     inkscape:current-layer="Слой_1" />
  <defs
     id="defs13">
    <style
       id="style2">.cls-1{fill:none;}.cls-2{clip-path:url(#clip-path);}.cls-3{clip-path:url(#clip-path-2);}.cls-4{clip-path:url(#clip-path-3);}.cls-5{fill:#0f9bd7;}.cls-6,.cls-7{fill:#fff;}.cls-7{fill-rule:evenodd;}</style>
    <clipPath
       id="clip-path">
      <path
         class="cls-1"
         d="m 130.5,-60.19 c 37.83,0 68.5,-16.13 68.5,-36 0,-19.87 -30.67,-36 -68.5,-36 -37.83,0 -68.5,16.07 -68.5,35.97 0,19.9 30.67,36 68.5,36"
         id="path4"
         inkscape:connector-curvature="0"
         style="fill:none" />
    </clipPath>
    <clipPath
       id="clip-path-2">
      <rect
         class="cls-1"
         x="62.32"
         y="-173.16"
         width="136.35001"
         height="153.88"
         transform="rotate(-56,130.50269,-96.236275)"
         id="rect7"
         style="fill:none" />
    </clipPath>
    <clipPath
       id="clip-path-3">
      <rect
         class="cls-1"
         x="-9.0100002"
         y="-236.37"
         width="279.01999"
         height="280.29001"
         transform="rotate(-56,130.50269,-96.236275)"
         id="rect10"
         style="fill:none" />
    </clipPath>
  </defs>
  <title
     id="title15">1salesforce</title>
  <path
     class="cls-5"
     d="m 62.418159,11.443625 a 26.28,26.28 0 0 1 19,-8.1700001 26.56,26.56 0 0 1 23.140001,13.7200001 32,32 0 0 1 13.08,-2.78 32.62,32.62 0 1 1 -6.35,64.65 23.64,23.64 0 0 1 -31.000001,9.73 27,27 0 0 1 -50.14,-1.22 24.89,24.89 0 0 1 -5.15,0.49 25.35,25.35 0 0 1 -12.48,-47.21 29.13,29.13 0 0 1 49.9,-29.21"
     id="path31"
     inkscape:connector-curvature="0"
     style="fill:#0f9bd7" />
  <path
     class="cls-6"
     d="m 21.718159,54.433625 c -0.09,0.25 0,0.3 0.06,0.34 a 9,9 0 0 0 0.86,0.52 9.14,9.14 0 0 0 4.49,1 c 3.08,0 5,-1.64 5,-4.27 v -0.05 c 0,-2.44 -2.16,-3.32 -4.18,-4 l -0.26,-0.08 c -1.53,-0.5 -2.84,-0.92 -2.84,-1.93 v -0.05 c 0,-0.86 0.77,-1.49 2,-1.49 a 8.86,8.86 0 0 1 3.91,1 c 0,0 0.3,0.19 0.41,-0.1 l 0.63,-1.68 a 0.29,0.29 0 0 0 -0.15,-0.35 8.73,8.73 0 0 0 -4.41,-1.18 h -0.31 c -2.82,0 -4.78,1.7 -4.78,4.14 v 0.05 c 0,2.57 2.17,3.4 4.2,4 l 0.33,0.1 c 1.48,0.45 2.76,0.85 2.76,1.89 v 0.05 c 0,1 -0.83,1.66 -2.17,1.66 a 7.26,7.26 0 0 1 -4,-1.14 l -0.51,-0.32 a 0.25,0.25 0 0 0 -0.41,0.14 z"
     id="path33"
     inkscape:connector-curvature="0"
     style="fill:#ffffff" />
  <path
     class="cls-6"
     d="m 66.768159,54.433625 c -0.09,0.25 0,0.3 0.06,0.34 a 9,9 0 0 0 0.86,0.52 9.14,9.14 0 0 0 4.49,1 c 3.08,0 5,-1.64 5,-4.27 v -0.05 c 0,-2.44 -2.16,-3.32 -4.18,-4 l -0.26,-0.08 c -1.53,-0.5 -2.84,-0.92 -2.84,-1.93 v -0.05 c 0,-0.86 0.77,-1.49 2,-1.49 a 8.86,8.86 0 0 1 3.91,1 c 0,0 0.3,0.19 0.41,-0.1 l 0.63,-1.68 a 0.29,0.29 0 0 0 -0.15,-0.35 8.72,8.72 0 0 0 -4.41,-1.18 h -0.31 c -2.82,0 -4.78,1.7 -4.78,4.14 v 0.05 c 0,2.57 2.17,3.4 4.2,4 l 0.33,0.1 c 1.48,0.45 2.76,0.85 2.76,1.89 v 0.05 c 0,1 -0.83,1.66 -2.17,1.66 a 7.27,7.27 0 0 1 -4,-1.14 l -0.51,-0.32 a 0.26,0.26 0 0 0 -0.4,0.14 z"
     id="path35"
     inkscape:connector-curvature="0"
     style="fill:#ffffff" />
  <path
     class="cls-6"
     d="m 100.08816,46.513625 a 6.18,6.18 0 0 0 -1.170001,-2.23 5.62,5.62 0 0 0 -2,-1.5 7.13,7.13 0 0 0 -5.51,0 5.61,5.61 0 0 0 -2,1.5 6.15,6.15 0 0 0 -1.17,2.23 10.23,10.23 0 0 0 0,5.52 6.18,6.18 0 0 0 1.17,2.23 5.51,5.51 0 0 0 2,1.49 7.31,7.31 0 0 0 5.5,0 5.53,5.53 0 0 0 2,-1.49 6.18,6.18 0 0 0 1.170001,-2.23 10.23,10.23 0 0 0 0,-5.52 m -2.570001,2.76 a 6.34,6.34 0 0 1 -0.82,3.49 2.76,2.76 0 0 1 -2.5,1.22 2.73,2.73 0 0 1 -2.49,-1.22 7.88,7.88 0 0 1 0,-7 3.18,3.18 0 0 1 5,0 6.27,6.27 0 0 1 0.82,3.48"
     id="path37"
     inkscape:connector-curvature="0"
     style="fill:#ffffff" />
  <path
     class="cls-7"
     d="m 121.17816,53.583625 a 0.24,0.24 0 0 0 -0.33,-0.15 5.82,5.82 0 0 1 -1.19,0.34 9,9 0 0 1 -1.41,0.1 3.92,3.92 0 0 1 -2.94,-1.1 4.92,4.92 0 0 1 -1.1,-3.51 5.45,5.45 0 0 1 1,-3.38 3.36,3.36 0 0 1 2.79,-1.26 8.62,8.62 0 0 1 2.71,0.39 c 0,0 0.2,0.09 0.3,-0.18 0.23,-0.63 0.39,-1.07 0.63,-1.75 a 0.23,0.23 0 0 0 -0.16,-0.3 10,10 0 0 0 -1.71,-0.43 13.08,13.08 0 0 0 -1.93,-0.13 7,7 0 0 0 -2.86,0.55 5.92,5.92 0 0 0 -1.98,1.49 6.33,6.33 0 0 0 -1.25,2.23 8.82,8.82 0 0 0 -0.42,2.77 7.38,7.38 0 0 0 1.67,5.11 6.49,6.49 0 0 0 5.07,1.91 10.49,10.49 0 0 0 3.64,-0.65 0.23,0.23 0 0 0 0.1,-0.31 z"
     id="path39"
     inkscape:connector-curvature="0"
     style="fill:#ffffff;fill-rule:evenodd" />
  <path
     class="cls-7"
     d="m 134.31816,46.033625 a 5.41,5.41 0 0 0 -1.11,-2 5.08,5.08 0 0 0 -1.65,-1.26 6.33,6.33 0 0 0 -2.49,-0.5 6.81,6.81 0 0 0 -2.87,0.56 5.71,5.71 0 0 0 -2,1.53 6.3,6.3 0 0 0 -1.2,2.21 9.76,9.76 0 0 0 -0.38,2.77 9.3,9.3 0 0 0 0.39,2.78 5.57,5.57 0 0 0 3.45,3.66 8.73,8.73 0 0 0 3.16,0.51 9.05,9.05 0 0 0 4.38,-0.87 c 0.1,-0.06 0.19,-0.15 0.07,-0.42 l -0.57,-1.59 a 0.25,0.25 0 0 0 -0.33,-0.15 8.38,8.38 0 0 1 -3.57,0.64 3.56,3.56 0 0 1 -4,-3.91 h 8.69 a 0.26,0.26 0 0 0 0.25,-0.23 9.32,9.32 0 0 0 -0.26,-3.74 m -8.61,1.84 a 5.07,5.07 0 0 1 0.7,-2.05 2.77,2.77 0 0 1 2.48,-1.26 2.7,2.7 0 0 1 2.44,1.26 4.29,4.29 0 0 1 0.58,2.05 z"
     id="path41"
     inkscape:connector-curvature="0"
     style="fill:#ffffff;fill-rule:evenodd" />
  <path
     class="cls-7"
     d="m 64.688159,46.033625 a 5.41,5.41 0 0 0 -1.11,-2 5.06,5.06 0 0 0 -1.65,-1.26 6.34,6.34 0 0 0 -2.49,-0.5 6.81,6.81 0 0 0 -2.87,0.56 5.71,5.71 0 0 0 -2,1.53 6.3,6.3 0 0 0 -1.18,2.26 9.76,9.76 0 0 0 -0.38,2.77 9.3,9.3 0 0 0 0.39,2.78 5.57,5.57 0 0 0 3.45,3.66 8.73,8.73 0 0 0 3.16,0.51 9.05,9.05 0 0 0 4.38,-0.87 c 0.1,-0.06 0.19,-0.15 0.07,-0.42 l -0.57,-1.59 a 0.25,0.25 0 0 0 -0.33,-0.15 8.38,8.38 0 0 1 -3.56,0.55 3.56,3.56 0 0 1 -4,-3.91 h 8.69 a 0.26,0.26 0 0 0 0.25,-0.23 9.32,9.32 0 0 0 -0.26,-3.74 m -8.68,1.88 a 5.1,5.1 0 0 1 0.7,-2.05 2.78,2.78 0 0 1 2.49,-1.26 2.7,2.7 0 0 1 2.44,1.26 4.31,4.31 0 0 1 0.58,2.05 z"
     id="path43"
     inkscape:connector-curvature="0"
     style="fill:#ffffff;fill-rule:evenodd" />
  <path
     class="cls-6"
     d="m 40.708159,47.433625 c -0.35,0 -0.81,0 -1.36,0 a 8.21,8.21 0 0 0 -2.14,0.28 5.62,5.62 0 0 0 -1.81,0.84 4.07,4.07 0 0 0 -1.73,3.44 4.51,4.51 0 0 0 0.4,2 3.58,3.58 0 0 0 1.13,1.36 4.77,4.77 0 0 0 1.77,0.77 10.39,10.39 0 0 0 2.3,0.24 15.9,15.9 0 0 0 2.64,-0.22 c 0.85,-0.15 1.9,-0.36 2.19,-0.43 l 0.61,-0.15 a 0.27,0.27 0 0 0 0.2,-0.28 v -8.02 a 4.88,4.88 0 0 0 -1.38,-3.84 5.92,5.92 0 0 0 -4,-1.2 14.38,14.38 0 0 0 -2.33,0.21 8.36,8.36 0 0 0 -2.68,1 0.27,0.27 0 0 0 -0.08,0.35 l 0.62,1.65 a 0.22,0.22 0 0 0 0.29,0.14 l 0.14,-0.07 a 8.84,8.84 0 0 1 3.79,-0.88 3.52,3.52 0 0 1 2.15,0.56 c 0.47,0.37 0.71,0.91 0.71,2.07 v 0.37 c -0.75,-0.11 -1.43,-0.17 -1.43,-0.17 m -3.46,6.11 a 1.67,1.67 0 0 1 -0.5,-0.52 2.07,2.07 0 0 1 -0.26,-1.18 1.9,1.9 0 0 1 0.78,-1.68 3.89,3.89 0 0 1 2.52,-0.63 17.6,17.6 0 0 1 2.36,0.2 v 4 a 17.8,17.8 0 0 1 -2.35,0.31 3.91,3.91 0 0 1 -2.55,-0.51"
     id="path45"
     inkscape:connector-curvature="0"
     style="fill:#ffffff" />
  <path
     class="cls-7"
     d="m 110.82816,42.953625 a 0.24,0.24 0 0 0 -0.13,-0.31 7.89,7.89 0 0 0 -1.46,-0.25 4.32,4.32 0 0 0 -2.24,0.36 3.89,3.89 0 0 0 -1.46,1.11 v -1.09 a 0.25,0.25 0 0 0 -0.25,-0.26 h -2.23 a 0.25,0.25 0 0 0 -0.25,0.26 v 13 a 0.26,0.26 0 0 0 0.26,0.26 h 2.28 a 0.26,0.26 0 0 0 0.26,-0.26 v -6.51 a 7.6,7.6 0 0 1 0.29,-2.28 3.24,3.24 0 0 1 0.76,-1.28 2.64,2.64 0 0 1 1.08,-0.65 4.21,4.21 0 0 1 1.16,-0.17 4.79,4.79 0 0 1 1,0.12 c 0.17,0 0.26,-0.09 0.32,-0.24 0.15,-0.4 0.57,-1.59 0.65,-1.83"
     id="path47"
     inkscape:connector-curvature="0"
     style="fill:#ffffff;fill-rule:evenodd" />
  <path
     class="cls-7"
     d="m 89.388159,36.943625 a 6.9,6.9 0 0 0 -0.86,-0.2 6.62,6.62 0 0 0 -1.18,-0.09 5,5 0 0 0 -3.68,1.32 7.19,7.19 0 0 0 -1.75,3.89 l -0.11,0.59 h -2 a 0.29,0.29 0 0 0 -0.29,0.25 l -0.32,1.81 c 0,0.17 0.05,0.28 0.28,0.28 h 1.92 l -2,10.88 a 13.58,13.58 0 0 1 -0.4,2.19 4.35,4.35 0 0 1 -0.61,1.24 1.62,1.62 0 0 1 -0.8,0.62 3.28,3.28 0 0 1 -1,0.15 3.92,3.92 0 0 1 -0.7,-0.08 2.06,2.06 0 0 1 -0.47,-0.15 0.24,0.24 0 0 0 -0.32,0.14 l -0.64,1.77 a 0.26,0.26 0 0 0 0.13,0.35 6.58,6.58 0 0 0 0.79,0.23 5.23,5.23 0 0 0 1.27,0.12 6.35,6.35 0 0 0 2.13,-0.33 4,4 0 0 0 1.61,-1.12 5.79,5.79 0 0 0 1.09,-1.94 16.67,16.67 0 0 0 0.76,-2.92 l 2,-11.08 h 2.86 a 0.29,0.29 0 0 0 0.29,-0.25 l 0.32,-1.81 c 0,-0.17 -0.05,-0.28 -0.28,-0.28 h -2.78 a 11.64,11.64 0 0 1 0.46,-2 2.51,2.51 0 0 1 0.61,-0.93 1.82,1.82 0 0 1 0.73,-0.45 3.07,3.07 0 0 1 0.93,-0.13 3.73,3.73 0 0 1 0.71,0.07 l 0.45,0.11 c 0.28,0.09 0.32,0 0.38,-0.13 l 0.66,-1.83 a 0.23,0.23 0 0 0 -0.16,-0.3"
     id="path49"
     inkscape:connector-curvature="0"
     style="fill:#ffffff;fill-rule:evenodd" />
  <path
     class="cls-7"
     d="m 50.548159,55.743625 a 0.25,0.25 0 0 1 -0.25,0.26 h -2.3 a 0.25,0.25 0 0 1 -0.25,-0.26 v -18.55 a 0.25,0.25 0 0 1 0.25,-0.26 h 2.31 a 0.25,0.25 0 0 1 0.25,0.26 z"
     id="path51"
     inkscape:connector-curvature="0"
     style="fill:#ffffff;fill-rule:evenodd" />
</svg>
